<svg width="191" height="191" viewBox="0 0 191 191" fill="none" xmlns="http://www.w3.org/2000/svg">
<path d="M95.3003 70.6005C99.8844 70.6005 103.601 66.8844 103.601 62.3003C103.601 57.7162 99.8844 54 95.3003 54C90.7162 54 87 57.7162 87 62.3003C87 66.8844 90.7162 70.6005 95.3003 70.6005Z" fill="black"/>
<path d="M103.604 130.086C101.71 129.433 100.097 128.151 99.0338 126.453L102.883 92.726C102.883 92.6465 102.883 92.5669 102.883 92.4874C102.883 92.4078 102.919 92.3592 102.928 92.2885C103.163 90.2611 102.703 88.2139 101.623 86.4821C100.543 84.7502 98.907 83.4362 96.9831 82.7551C96.3355 82.54 95.6675 82.3919 94.9897 82.3131C93.1908 82.099 91.3692 82.4345 89.7646 83.2755C88.16 84.1164 86.8476 85.4235 86 87.0246C86.4711 87.0905 86.9345 87.203 87.3834 87.3605C89.2678 88.0282 90.8759 89.305 91.9534 90.9891L88.0508 125.158C87.8125 127.179 88.2662 129.221 89.3378 130.951C90.4094 132.68 92.0356 133.996 93.9511 134.683C93.9909 134.731 93.9953 134.683 93.9953 134.683C94.6429 134.898 95.3108 135.046 95.9886 135.125C97.7875 135.339 99.6091 135.003 101.214 134.162C102.818 133.321 104.131 132.014 104.978 130.413C104.511 130.349 104.05 130.24 103.604 130.086Z" fill="black"/>
<circle cx="95.5" cy="95.5" r="79" stroke="black" stroke-width="5"/>
</svg>
