<svg width="191" height="191" viewBox="0 0 191 191" fill="none" xmlns="http://www.w3.org/2000/svg">
<path d="M113.818 159.819V122.732C113.818 121.093 113.157 119.521 111.981 118.362C110.805 117.202 109.209 116.551 107.545 116.551H82.4545C80.7909 116.551 79.1954 117.202 78.0191 118.362C76.8427 119.521 76.1818 121.093 76.1818 122.732V159.819C76.1818 161.458 75.5209 163.03 74.3446 164.19C73.1682 165.349 71.5727 166 69.9091 166H32.2727C30.6091 166 29.0136 165.349 27.8372 164.19C26.6609 163.03 26 161.458 26 159.819V88.3499C26.014 87.4945 26.2016 86.6505 26.5518 85.8676C26.9019 85.0847 27.4074 84.3788 28.0386 83.7913L90.7659 27.6206C91.9223 26.5781 93.4327 26 95 26C96.5673 26 98.0777 26.5781 99.2341 27.6206L161.961 83.7913C162.593 84.3788 163.098 85.0847 163.448 85.8676C163.798 86.6505 163.986 87.4945 164 88.3499V159.819C164 161.458 163.339 163.03 162.163 164.19C160.986 165.349 159.391 166 157.727 166H120.091C118.427 166 116.832 165.349 115.655 164.19C114.479 163.03 113.818 161.458 113.818 159.819Z" stroke="#001F25" stroke-width="8" stroke-linecap="round" stroke-linejoin="round"/>
</svg>
