<svg width="191" height="191" viewBox="0 0 191 191" fill="none" xmlns="http://www.w3.org/2000/svg">
<path d="M168.85 79.3571C169.968 79.3679 171.083 79.48 172.181 79.6921C172.769 79.7962 173.374 79.7725 173.952 79.6229C174.531 79.4732 175.069 79.2011 175.531 78.8252C175.991 78.447 176.361 77.9731 176.615 77.4373C176.869 76.9015 177 76.3169 177 75.725V59.1786C176.994 53.8288 174.845 48.7001 171.025 44.9172C167.205 41.1344 162.027 39.0064 156.625 39H34.375C28.9732 39.0064 23.7945 41.1344 19.9748 44.9172C16.1552 48.7001 14.0065 53.8288 14 59.1786V75.725C13.9999 76.3175 14.1315 76.9027 14.3854 77.4392C14.6394 77.9756 15.0095 78.4501 15.4695 78.8289C15.9295 79.2077 16.4681 79.4816 17.047 79.631C17.6259 79.7805 18.2309 79.8019 18.8191 79.6937C19.9167 79.4811 21.0317 79.3685 22.15 79.3571C26.473 79.3571 30.619 81.0579 33.6758 84.0853C36.7327 87.1127 38.45 91.2186 38.45 95.5C38.45 99.7814 36.7327 103.887 33.6758 106.915C30.619 109.942 26.473 111.643 22.15 111.643C21.0317 111.632 19.9168 111.52 18.8191 111.308C18.2306 111.204 17.6262 111.228 17.0478 111.377C16.4694 111.527 15.9306 111.799 15.4686 112.175C15.0089 112.553 14.639 113.027 14.3852 113.563C14.1314 114.099 13.9999 114.683 14 115.275V131.821C14.0065 137.171 16.1552 142.3 19.9748 146.083C23.7945 149.866 28.9732 151.994 34.375 152H156.625C162.027 151.994 167.205 149.866 171.025 146.083C174.845 142.3 176.994 137.171 177 131.821V115.275C177.001 114.683 176.869 114.098 176.616 113.562C176.362 113.026 175.993 112.552 175.533 112.173C175.071 111.798 174.532 111.526 173.954 111.376C173.375 111.227 172.771 111.203 172.183 111.306C171.084 111.519 169.969 111.632 168.85 111.643C164.527 111.643 160.381 109.942 157.324 106.915C154.267 103.887 152.55 99.7814 152.55 95.5C152.55 91.2186 154.267 87.1127 157.324 84.0853C160.381 81.0579 164.527 79.3571 168.85 79.3571ZM168.85 119.714V131.821C168.846 135.031 167.557 138.109 165.265 140.378C162.973 142.648 159.866 143.925 156.625 143.929H34.375C31.1339 143.925 28.0265 142.648 25.7347 140.378C23.4428 138.109 22.1537 135.031 22.15 131.821V119.714C28.6345 119.714 34.8535 117.163 39.4388 112.622C44.024 108.081 46.6 101.922 46.6 95.5C46.6 89.078 44.024 82.919 39.4388 78.3779C34.8535 73.8369 28.6345 71.2857 22.15 71.2857V59.1786C22.1537 55.9687 23.4428 52.8913 25.7347 50.6215C28.0265 48.3518 31.1339 47.0751 34.375 47.0714H156.625C159.866 47.0751 162.973 48.3518 165.265 50.6215C167.557 52.8913 168.846 55.9687 168.85 59.1786V71.2857C162.365 71.2857 156.146 73.8369 151.561 78.3779C146.976 82.919 144.4 89.078 144.4 95.5C144.4 101.922 146.976 108.081 151.561 112.622C156.146 117.163 162.365 119.714 168.85 119.714Z" fill="black"/>
<path d="M99.5753 71.2855V79.3569C99.5753 80.4272 99.146 81.4537 98.3818 82.2106C97.6175 82.9674 96.581 83.3926 95.5003 83.3926C94.4195 83.3926 93.383 82.9674 92.6188 82.2106C91.8546 81.4537 91.4253 80.4272 91.4253 79.3569V71.2855C91.4253 70.2151 91.8546 69.1886 92.6188 68.4318C93.383 67.6749 94.4195 67.2498 95.5003 67.2498C96.581 67.2498 97.6175 67.6749 98.3818 68.4318C99.146 69.1886 99.5753 70.2151 99.5753 71.2855Z" fill="black"/>
<path d="M99.5753 111.643V119.714C99.5753 120.785 99.146 121.811 98.3818 122.568C97.6175 123.325 96.581 123.75 95.5003 123.75C94.4195 123.75 93.383 123.325 92.6188 122.568C91.8546 121.811 91.4253 120.785 91.4253 119.714V111.643C91.4253 110.573 91.8546 109.546 92.6188 108.789C93.383 108.032 94.4195 107.607 95.5003 107.607C96.581 107.607 97.6175 108.032 98.3818 108.789C99.146 109.546 99.5753 110.573 99.5753 111.643Z" fill="black"/>
</svg>
