<svg width="24" height="24" viewBox="0 0 24 24" fill="none" xmlns="http://www.w3.org/2000/svg">
<path d="M20.4431 11.0555L20.4927 11.5H20.94H22C22.2739 11.5 22.5 11.7261 22.5 12C22.5 12.2739 22.2739 12.5 22 12.5H20.94H20.4927L20.4431 12.9445C20.2292 14.8596 19.3704 16.6451 18.0078 18.0078C16.6451 19.3704 14.8596 20.2292 12.9445 20.4431L12.5 20.4927V20.94V22C12.5 22.2739 12.2739 22.5 12 22.5C11.7261 22.5 11.5 22.2739 11.5 22V20.94V20.4927L11.0555 20.4431C9.14036 20.2292 7.35488 19.3704 5.99225 18.0078C4.62961 16.6451 3.77083 14.8596 3.55691 12.9445L3.50726 12.5H3.06H2C1.72614 12.5 1.5 12.2739 1.5 12C1.5 11.7261 1.72614 11.5 2 11.5H3.06H3.50726L3.55691 11.0555C3.77083 9.14036 4.62961 7.35488 5.99225 5.99225C7.35488 4.62961 9.14036 3.77083 11.0555 3.55691L11.5 3.50726V3.06V2C11.5 1.72614 11.7261 1.5 12 1.5C12.2739 1.5 12.5 1.72614 12.5 2V3.06V3.50726L12.9445 3.55691C14.8596 3.77083 16.6451 4.62961 18.0078 5.99225C19.3704 7.35488 20.2292 9.14036 20.4431 11.0555ZM8.5 12C8.5 10.0661 10.0661 8.5 12 8.5C13.9339 8.5 15.5 10.0661 15.5 12C15.5 13.9339 13.9339 15.5 12 15.5C10.0661 15.5 8.5 13.9339 8.5 12ZM4.5 12C4.5 16.1461 7.85386 19.5 12 19.5C16.1461 19.5 19.5 16.1461 19.5 12C19.5 7.85386 16.1461 4.5 12 4.5C7.85386 4.5 4.5 7.85386 4.5 12Z" fill="#156778" stroke="#156778"/>
</svg>
