<svg width="191" height="191" viewBox="0 0 191 191" fill="none" xmlns="http://www.w3.org/2000/svg">
<path d="M135.036 174.036H54.9644C47.9406 174.036 43.0239 168.417 43.0239 162.095V56.7383H146.976V161.393C146.976 168.417 141.357 174.036 135.036 174.036Z" stroke="#FF0000" stroke-width="5" stroke-miterlimit="10" stroke-linecap="round" stroke-linejoin="round"/>
<path d="M154 52.5238V39.881C154 34.9643 149.786 30.75 144.869 30.75H118.881L116.071 20.2143C114.667 17.4048 112.56 16 109.048 16H80.9524C78.1429 16 75.3333 17.4048 73.9286 20.2143L71.1191 30.0476H45.131C40.2143 30.0476 36 34.2619 36 39.1786V52.5238C36 54.631 38.1071 56.7381 40.2143 56.7381H149.786C152.595 56.7381 154 54.631 154 52.5238Z" stroke="#FF0000" stroke-width="5" stroke-miterlimit="10" stroke-linecap="round" stroke-linejoin="round"/>
<path d="M72.5239 82.0237V148.75" stroke="#FF0000" stroke-width="5" stroke-miterlimit="10" stroke-linecap="round" stroke-linejoin="round"/>
<path d="M95.0002 82.0237V148.75" stroke="#FF0000" stroke-width="5" stroke-miterlimit="10" stroke-linecap="round" stroke-linejoin="round"/>
<path d="M117.476 82.0237V148.75" stroke="#FF0000" stroke-width="5" stroke-miterlimit="10" stroke-linecap="round" stroke-linejoin="round"/>
</svg>
