<svg width="191" height="191" viewBox="0 0 191 191" fill="none" xmlns="http://www.w3.org/2000/svg">
<path d="M127.558 47.4897C127.558 67.0901 111.669 82.9794 92.0681 82.9793C72.4677 82.9793 56.5784 67.0901 56.5784 47.4897C56.5784 27.8893 72.4677 12 92.0681 12C111.669 12 127.558 27.8893 127.558 47.4897Z" stroke="black" stroke-width="7" stroke-linecap="round" stroke-linejoin="round"/>
<path d="M90.0886 110.045C52.2254 110.532 15 125.005 15 153.462C15 178.291 49.5047 179.001 92.0684 179.001C134.632 179.001 169.137 178.291 169.137 153.462" stroke="black" stroke-width="7" stroke-linecap="round" stroke-linejoin="round"/>
<path d="M170.893 83.4184C177.132 89.658 177.132 99.7043 170.893 105.944L132.767 144.069C126.528 150.309 105.242 161.548 99.0026 155.309C92.7631 149.069 104.002 127.784 110.242 121.544L148.367 83.4184C154.607 77.1789 164.653 77.1789 170.893 83.4184Z" stroke="black" stroke-width="7" stroke-linecap="round" stroke-linejoin="round"/>
</svg>
