<svg width="41" height="40" viewBox="0 0 41 40" fill="none" xmlns="http://www.w3.org/2000/svg">
<g clip-path="url(#clip0_114_232)">
<path d="M20.5004 40C19.3336 40 18.1677 39.6644 17.1542 38.994C14.254 37.0755 12.1773 34.9906 10.8052 32.6201C9.46791 30.3096 8.75758 27.6712 8.64328 24.5781C5.23601 20.1193 5.2003 13.9043 8.5782 9.39555C9.52268 8.13497 10.674 7.0776 12.0005 6.25281L15.3319 4.18128C15.841 1.79528 17.9653 0 20.501 0C21.8352 0 23.1094 0.498841 24.0891 1.40465L29.3232 6.24438C29.5609 6.46407 29.5754 6.83478 29.3557 7.07245C29.1359 7.31003 28.7652 7.32456 28.5276 7.10487L23.2935 2.26514C22.531 1.56012 21.5393 1.1719 20.501 1.1719C18.233 1.1719 16.3879 3.01703 16.3879 5.28506C16.3879 6.0425 16.5953 6.78252 16.9877 7.42511C17.1563 7.70129 17.0691 8.06192 16.7929 8.2306C16.5167 8.3992 16.1561 8.31201 15.9875 8.03583C15.542 7.30628 15.282 6.4797 15.227 5.62663L12.6194 7.24807C11.4171 7.99567 10.373 8.9546 9.51619 10.0983C9.51463 10.1003 9.51315 10.1023 9.51166 10.1043C9.51072 10.1056 9.50955 10.1071 9.50861 10.1084C9.50807 10.1092 9.50768 10.1096 9.50713 10.1103C6.8073 13.7239 6.52229 18.5512 8.62984 22.4124C8.67516 20.2566 9.27814 17.7576 12.7849 15.3116C13.8173 14.5915 17.1145 12.4122 19.4316 10.8906C18.8592 10.519 18.257 10.1287 17.6237 9.71892C17.3519 9.54313 17.2742 9.18039 17.45 8.90866C17.6257 8.63686 17.9886 8.55912 18.2602 8.73499C23.3016 11.9966 26.3724 14.0249 28.217 15.3116C31.7239 17.7576 32.3269 20.2565 32.3722 22.4123C34.4819 18.5467 34.1938 13.7128 31.4858 10.0982C31.0683 9.54094 30.6162 9.03609 30.1422 8.5978C29.9047 8.3781 29.8901 8.00739 30.1098 7.76973C30.3295 7.53207 30.7002 7.51753 30.9379 7.73731C31.4638 8.22372 31.9638 8.78155 32.4238 9.39547C35.7981 13.8994 35.7643 20.1211 32.3585 24.5784C32.2115 28.4949 31.0962 31.7364 28.9614 34.4638C28.762 34.7186 28.3937 34.7636 28.1388 34.5641C27.884 34.3646 27.8391 33.9963 28.0386 33.7416C30.1977 30.983 31.2034 27.7838 31.2034 23.6733V22.7003C31.2034 20.6866 30.7604 18.5141 27.5468 16.2727C26.0938 15.2592 23.8694 13.7789 20.5047 11.5881C17.7676 13.3832 14.4233 15.5977 13.4554 16.2727C10.2418 18.5142 9.79886 20.6866 9.79886 22.7003V23.6733C9.79886 26.9492 10.4599 29.6836 11.8197 32.033C13.0989 34.2431 15.0554 36.2003 17.8009 38.0165C19.4171 39.0857 21.515 39.0997 23.1455 38.0524L23.2074 38.0126C24.5858 37.1007 25.6431 36.2738 26.5287 35.4143C26.761 35.1889 27.1319 35.1944 27.3573 35.4266C27.5827 35.6589 27.5771 36.0298 27.3449 36.2551C26.4058 37.1666 25.2945 38.0369 23.848 38.9939L23.7795 39.038C22.7804 39.6797 21.64 39.9999 20.5004 40V40ZM20.501 36.4208C19.5287 36.4208 18.6888 36.1722 17.858 35.6387C17.5857 35.4639 17.5067 35.1014 17.6816 34.829C17.8566 34.5567 18.219 34.4778 18.4913 34.6526C19.1334 35.065 19.7532 35.2489 20.501 35.2489C21.2487 35.2489 21.8686 35.065 22.5107 34.6527C22.7831 34.4779 23.1454 34.5569 23.3204 34.8291C23.4952 35.1014 23.4162 35.4639 23.144 35.6388C22.3131 36.1722 21.4733 36.4208 20.501 36.4208V36.4208ZM22.7402 33.4682H18.2608C17.3281 33.4682 16.4225 33.0732 15.7762 32.3844C15.5548 32.1484 15.5665 31.7776 15.8025 31.5562C16.0385 31.3348 16.4093 31.3465 16.6307 31.5825C17.0564 32.0361 17.6505 32.2963 18.2607 32.2963H22.7401C23.351 32.2963 23.9455 32.0361 24.3711 31.5825C24.5926 31.3466 24.9634 31.3349 25.1993 31.5562C25.4353 31.7776 25.4471 32.1485 25.2256 32.3845C24.5795 33.0732 23.6736 33.4682 22.7402 33.4682V33.4682ZM20.501 30.5413C18.7794 30.5413 17.9754 29.3003 17.942 29.2474C17.7692 28.9739 17.8509 28.6119 18.1244 28.439C18.3963 28.267 18.7559 28.3469 18.9299 28.6168C18.9571 28.6574 19.4494 29.3693 20.5011 29.3693C21.567 29.3693 22.0648 28.6288 22.0695 28.6213C22.2424 28.3477 22.6043 28.2661 22.8778 28.439C23.1514 28.6119 23.233 28.9738 23.0601 29.2474C23.0266 29.3004 22.2225 30.5413 20.501 30.5413V30.5413ZM25.9336 26.9448C23.5932 26.9448 21.6891 25.0407 21.6891 22.7003C21.6891 20.36 23.5933 18.4559 25.9336 18.4559C28.274 18.4559 30.1781 20.3599 30.1781 22.7003C30.1781 25.0408 28.2741 26.9448 25.9336 26.9448V26.9448ZM25.9336 19.6278C24.2394 19.6278 22.8611 21.0062 22.8611 22.7003C22.8611 24.3946 24.2394 25.7729 25.9336 25.7729C27.6278 25.7729 29.0062 24.3945 29.0062 22.7003C29.0062 21.0062 27.6279 19.6278 25.9336 19.6278V19.6278ZM15.0683 26.9448C12.7278 26.9448 10.8238 25.0407 10.8238 22.7003C10.8238 20.36 12.7278 18.4559 15.0683 18.4559C17.4087 18.4559 19.3128 20.3599 19.3128 22.7003C19.3128 25.0408 17.4087 26.9448 15.0683 26.9448V26.9448ZM15.0683 19.6278C13.374 19.6278 11.9957 21.0062 11.9957 22.7003C11.9957 24.3946 13.374 25.7729 15.0683 25.7729C16.7625 25.7729 18.1409 24.3945 18.1409 22.7003C18.1409 21.0062 16.7625 19.6278 15.0683 19.6278V19.6278ZM25.9336 24.601C25.61 24.601 25.3477 24.3387 25.3477 24.0151V23.7982C25.3477 23.4746 25.61 23.2122 25.9336 23.2122C26.2572 23.2122 26.5196 23.4746 26.5196 23.7982V24.0151C26.5196 24.3387 26.2573 24.601 25.9336 24.601ZM15.0683 24.601C14.7447 24.601 14.4823 24.3387 14.4823 24.0151V23.7982C14.4823 23.4746 14.7447 23.2122 15.0683 23.2122C15.3919 23.2122 15.6542 23.4746 15.6542 23.7982V24.0151C15.6542 24.3387 15.3919 24.601 15.0683 24.601ZM16.0196 22.7375C15.8171 22.7375 15.6202 22.6325 15.5117 22.4445C15.3498 22.1642 15.4458 21.8059 15.726 21.6441L15.9138 21.5356C16.1939 21.3738 16.5524 21.4697 16.7143 21.75C16.8761 22.0302 16.7801 22.3886 16.4999 22.5504L16.3121 22.6589C16.2198 22.7121 16.119 22.7375 16.0196 22.7375V22.7375ZM26.8849 22.7375C26.6824 22.7375 26.4854 22.6325 26.3769 22.4445C26.2151 22.1642 26.3111 21.8059 26.5914 21.6441L26.7792 21.5356C27.0594 21.3739 27.4178 21.4698 27.5796 21.7501C27.7414 22.0303 27.6454 22.3887 27.3651 22.5505L27.1773 22.6589C27.0851 22.7121 26.9844 22.7375 26.8849 22.7375ZM24.9824 22.7375C24.883 22.7375 24.7822 22.7122 24.6899 22.6589L24.5021 22.5505C24.2219 22.3887 24.1258 22.0303 24.2877 21.7501C24.4495 21.4698 24.8077 21.3737 25.0881 21.5356L25.2759 21.6441C25.5561 21.8059 25.6521 22.1642 25.4903 22.4445C25.3818 22.6325 25.1849 22.7375 24.9824 22.7375ZM14.117 22.7375C14.0176 22.7375 13.9168 22.7122 13.8246 22.6589L13.6368 22.5505C13.3565 22.3887 13.2605 22.0303 13.4223 21.7501C13.5841 21.4698 13.9424 21.3737 14.2227 21.5356L14.4105 21.6441C14.6908 21.8059 14.7868 22.1642 14.625 22.4445C14.5165 22.6325 14.3195 22.7375 14.117 22.7375Z" fill="#156778"/>
</g>
<defs>
<clipPath id="clip0_114_232">
<rect width="40" height="40" fill="white" transform="translate(0.5)"/>
</clipPath>
</defs>
</svg>
