<svg width="191" height="191" viewBox="0 0 191 191" fill="none" xmlns="http://www.w3.org/2000/svg">
<path d="M161.997 33.8138C151.529 23.6254 135.179 18.5571 120.255 20.9232C109.508 22.5911 100.81 28.099 95.5894 36.3997C90.4959 27.9568 82.066 22.3842 71.4841 20.5999C56.7001 18.1304 39.6494 23.4315 28.9911 33.8009C24.2834 38.3802 20.5306 43.874 17.9558 49.9555C15.381 56.037 14.0369 62.5821 14.0033 69.2016C13.9262 76.0681 15.21 82.8801 17.7782 89.2327C20.3465 95.5852 24.1467 101.348 28.9529 106.18L89.1333 167.323C89.962 168.171 90.9478 168.844 92.0341 169.304C93.1203 169.763 94.2854 170 95.4621 170C96.6388 170 97.8039 169.763 98.8901 169.304C99.9763 168.844 100.962 168.171 101.791 167.323L162.009 106.167C166.821 101.34 170.627 95.5806 173.202 89.2303C175.777 82.8799 177.068 76.0686 176.997 69.2016C176.96 62.5833 175.613 56.0401 173.036 49.9609C170.46 43.8817 166.705 38.3906 161.997 33.8138ZM156.623 100.685L96.4299 161.841C96.3107 161.97 96.1668 162.073 96.0069 162.143C95.847 162.214 95.6746 162.25 95.5003 162.25C95.326 162.25 95.1536 162.214 94.9937 162.143C94.8338 162.073 94.6898 161.97 94.5707 161.841L34.3775 100.685C30.29 96.5839 27.0564 91.6904 24.8688 86.2952C22.6812 80.9 21.5844 75.1133 21.6436 69.2792C21.6726 63.6914 22.8081 58.1667 24.9826 53.0335C27.157 47.9004 30.3261 43.2637 34.3011 39.3993C41.8014 32.0683 53.1218 27.7628 63.9584 27.7628C66.0656 27.761 68.1695 27.9339 70.2489 28.28C76.6159 29.3402 85.1094 32.5726 89.8846 41.9335C90.4216 42.9791 91.227 43.858 92.2155 44.477C93.204 45.0961 94.339 45.4324 95.5003 45.4503C96.6323 45.4531 97.744 45.1444 98.7171 44.557C99.6902 43.9697 100.488 43.1256 101.027 42.1145C105.98 32.8053 114.805 29.6247 121.325 28.5903C133.766 26.625 147.939 30.9693 156.598 39.4122C160.59 43.2663 163.777 47.897 165.969 53.0282C168.161 58.1594 169.313 63.6862 169.357 69.2792C169.416 75.1133 168.319 80.9 166.132 86.2952C163.944 91.6904 160.711 96.5839 156.623 100.685Z" fill="black"/>
</svg>
