<svg width="191" height="191" viewBox="0 0 191 191" fill="none" xmlns="http://www.w3.org/2000/svg">
<path d="M78.2639 104.193C73.9795 105.395 70.1187 106.347 66.6977 107.007L47.6868 123.414L65.3008 123.254L68.7136 137.88L84.6334 112.503C82.8214 112 81.2206 110.917 80.072 109.419C78.9233 107.92 78.2888 106.086 78.2639 104.193Z" fill="black"/>
<path d="M107.453 86.7469C107.453 85.8982 107.116 85.0843 106.516 84.4841C105.916 83.884 105.102 83.5469 104.254 83.5469H86.7502C85.9013 83.5469 85.0871 83.8839 84.4864 84.4839C83.8857 85.0839 83.5477 85.8978 83.5466 86.7469V104.249C83.5488 105.099 83.887 105.912 84.4874 106.513C85.0877 107.113 85.9013 107.451 86.7502 107.454H104.254C105.102 107.451 105.916 107.113 106.515 106.512C107.115 105.912 107.452 105.098 107.453 104.249V86.7469Z" fill="black"/>
<path d="M78.6291 98.8246V86.9891C78.6293 85.7928 78.8725 84.6089 79.3442 83.5089C79.8158 82.4088 80.506 81.4155 81.3732 80.5888C73.3042 75.4669 63.4546 70.5079 57.3757 70.5079C56.5424 70.494 55.7123 70.6125 54.9164 70.8589C52.6457 71.6067 50.6976 73.5827 49.1139 76.7077C45.247 84.4198 45.1967 95.8584 45.7917 97.6339C47.5303 102.501 51.6653 106.461 78.6291 98.8246Z" fill="black"/>
<path d="M112.729 104.193C112.706 106.085 112.073 107.918 110.925 109.417C109.778 110.915 108.178 111.998 106.367 112.501L122.284 137.88L125.701 123.257L143.313 123.417L124.3 107.015C120.883 106.35 117.018 105.395 112.729 104.193Z" fill="black"/>
<path d="M155.555 14H35.4452C29.7596 14.0065 24.3087 16.268 20.2883 20.2883C16.268 24.3087 14.0065 29.7596 14 35.4452V155.555C14.0065 161.24 16.268 166.691 20.2883 170.712C24.3087 174.732 29.7596 176.994 35.4452 177H155.555C161.24 176.994 166.691 174.732 170.712 170.712C174.732 166.691 176.994 161.24 177 155.555V35.4452C176.994 29.7596 174.732 24.3087 170.712 20.2883C166.691 16.268 161.24 14.0065 155.555 14ZM168.691 85.616H149.944C150.882 91.5946 150.674 97.0426 149.997 98.9321C148.993 101.74 147.499 103.882 145.365 105.38H168.691V155.575C168.688 159.059 167.303 162.398 164.84 164.862C162.378 167.325 159.038 168.711 155.555 168.716H104.8V112.513C104.572 112.513 104.339 112.55 104.107 112.55H86.8933C86.6607 112.55 86.4281 112.55 86.1955 112.513V168.695H35.4452C31.9618 168.691 28.6224 167.305 26.1597 164.842C23.6969 162.378 22.312 159.038 22.3087 155.555V105.359H45.6271C43.4969 103.862 42.0073 101.719 41.0034 98.9116C40.326 97.0099 40.1138 91.566 41.0565 85.5956H22.3087V35.4452C22.312 31.9618 23.6969 28.622 26.1597 26.1585C28.6224 23.695 31.9618 22.309 35.4452 22.3047H86.1955V77.9521H104.8V22.3047H155.555C159.038 22.309 162.378 23.695 164.84 26.1585C167.303 28.622 168.688 31.9618 168.691 35.4452V85.616Z" fill="black"/>
<path d="M136.371 70.8588C130.992 69.0203 119.715 74.6987 110.714 80.5901C111.555 81.4167 112.224 82.4101 112.682 83.5103C113.139 84.6106 113.375 85.7948 113.374 86.9913V98.8244C139.519 106.458 143.536 102.501 145.218 97.6544C145.795 95.8828 145.742 84.43 141.968 76.721C140.433 73.5789 138.56 71.6067 136.371 70.8588Z" fill="black"/>
</svg>
