<svg width="25" height="24" viewBox="0 0 25 24" fill="none" xmlns="http://www.w3.org/2000/svg">
<path d="M9.43477 20.7733V17.7156C9.43477 16.9351 10.0722 16.3023 10.8584 16.3023H13.7326C14.1102 16.3023 14.4723 16.4512 14.7393 16.7163C15.0063 16.9813 15.1563 17.3408 15.1563 17.7156V20.7733C15.1539 21.0978 15.2821 21.4099 15.5124 21.6402C15.7427 21.8705 16.056 22 16.3829 22H18.3438C19.2596 22.0023 20.1387 21.6428 20.7872 21.0008C21.4356 20.3588 21.8 19.487 21.8 18.5778V9.86686C21.8 9.13246 21.4721 8.43584 20.9046 7.96467L14.234 2.67587C13.0736 1.74856 11.4111 1.7785 10.2854 2.74698L3.767 7.96467C3.17273 8.42195 2.81754 9.12064 2.79999 9.86686V18.5689C2.79999 20.4639 4.34737 22 6.25616 22H8.17228C8.85121 22 9.40298 21.4562 9.4079 20.7822L9.43477 20.7733Z" fill="#ADB3BC"/>
</svg>
