<svg width="18" height="18" viewBox="0 0 18 18" fill="none" xmlns="http://www.w3.org/2000/svg">
<path d="M9 12C9.41421 12 9.75 11.6642 9.75 11.25C9.75 10.8358 9.41421 10.5 9 10.5C8.58579 10.5 8.25 10.8358 8.25 11.25C8.25 11.6642 8.58579 12 9 12Z" fill="#156778"/>
<path d="M12.75 5.99999H12V4.58249C12 3.78684 11.6839 3.02378 11.1213 2.46117C10.5587 1.89856 9.79565 1.58249 9 1.58249C8.20435 1.58249 7.44129 1.89856 6.87868 2.46117C6.31607 3.02378 6 3.78684 6 4.58249V5.99999H5.25C4.65326 5.99999 4.08097 6.23704 3.65901 6.659C3.23705 7.08096 3 7.65325 3 8.24999V14.25C3 14.8467 3.23705 15.419 3.65901 15.841C4.08097 16.2629 4.65326 16.5 5.25 16.5H12.75C13.3467 16.5 13.919 16.2629 14.341 15.841C14.7629 15.419 15 14.8467 15 14.25V8.24999C15 7.65325 14.7629 7.08096 14.341 6.659C13.919 6.23704 13.3467 5.99999 12.75 5.99999ZM7.5 4.58249C7.48991 4.17396 7.64209 3.77808 7.92321 3.48149C8.20434 3.1849 8.59152 3.01177 9 2.99999C9.40848 3.01177 9.79566 3.1849 10.0768 3.48149C10.3579 3.77808 10.5101 4.17396 10.5 4.58249V5.99999H7.5V4.58249ZM9 13.5C8.55499 13.5 8.11998 13.368 7.74997 13.1208C7.37996 12.8736 7.09157 12.5222 6.92127 12.111C6.75097 11.6999 6.70642 11.2475 6.79323 10.811C6.88005 10.3746 7.09434 9.97367 7.40901 9.659C7.72368 9.34433 8.12459 9.13004 8.56105 9.04322C8.9975 8.95641 9.4499 9.00096 9.86104 9.17126C10.2722 9.34156 10.6236 9.62995 10.8708 9.99996C11.118 10.37 11.25 10.805 11.25 11.25C11.25 11.8467 11.0129 12.419 10.591 12.841C10.169 13.2629 9.59674 13.5 9 13.5Z" fill="#156778"/>
</svg>
