<svg width="18" height="18" viewBox="0 0 18 18" fill="none" xmlns="http://www.w3.org/2000/svg">
<path d="M15.9809 12.8258L15.3905 15.3851C15.3076 15.7469 14.9896 16 14.6171 16C8.21065 15.9995 3 10.7896 3 4.38387C3 4.01166 3.25314 3.69328 3.61502 3.61076L6.17464 3.02046C6.54741 2.93409 6.9283 3.12755 7.0832 3.48052L8.26448 6.23526C8.40257 6.55974 8.30943 6.93778 8.03645 7.1607L6.66929 8.25828C7.53215 10.0157 8.96127 11.4446 10.7195 12.3079L11.8388 10.9419C12.0594 10.6682 12.4404 10.5735 12.7649 10.7141L15.52 11.8949C15.8514 12.0692 16.0673 12.4551 15.9809 12.8258Z" fill="#156778"/>
</svg>
