<svg width="191" height="193" viewBox="0 0 191 193" fill="none" xmlns="http://www.w3.org/2000/svg">
<path d="M161.946 28.8729L95.7967 14H95.2027L29.0531 28.8729C28.7553 28.9322 28.488 29.0876 28.2963 29.3129C28.1045 29.5383 27.9999 29.8198 28.0001 30.1102V97.7472C27.983 111.232 31.7442 124.476 38.8939 136.106C46.0435 147.736 56.3213 157.328 68.6618 163.889L94.7707 179.793C94.9843 179.935 95.2398 180.007 95.4997 179.999C95.7254 179.997 95.9475 179.944 96.1477 179.845L125.713 164.534C137.161 157.77 146.601 148.315 153.129 137.073C159.658 125.831 163.056 113.179 162.999 100.325V30.1102C162.999 29.8198 162.895 29.5383 162.703 29.3129C162.511 29.0876 162.244 28.9322 161.946 28.8729ZM160.299 100.325C160.331 112.703 157.049 124.884 150.764 135.711C144.479 146.538 135.4 155.652 124.39 162.188L95.4997 177.216L69.9848 161.75C58.0453 155.404 48.1044 146.121 41.1957 134.866C34.287 123.61 30.6628 110.793 30.7 97.7472V31.1412L95.4997 16.5776L160.299 31.1412V100.325Z" fill="black" stroke="black" stroke-width="2"/>
<path d="M39.2592 94.9118C39.6172 94.9118 39.9606 94.7761 40.2138 94.5344C40.4669 94.2927 40.6092 93.9648 40.6092 93.623V88.4678C40.6092 88.126 40.4669 87.7981 40.2138 87.5564C39.9606 87.3147 39.6172 87.179 39.2592 87.179C38.9033 87.1856 38.5639 87.3235 38.3122 87.5637C38.0605 87.804 37.9161 88.128 37.9092 88.4678V93.623C37.9092 93.9648 38.0514 94.2927 38.3046 94.5344C38.5578 94.7761 38.9011 94.9118 39.2592 94.9118Z" fill="black" stroke="black"/>
<path d="M39.2592 84.6006C39.6172 84.6006 39.9606 84.4648 40.2138 84.2231C40.4669 83.9814 40.6092 83.6536 40.6092 83.3118V78.1565C40.6092 77.8147 40.4669 77.4869 40.2138 77.2452C39.9606 77.0035 39.6172 76.8677 39.2592 76.8677C38.9033 76.8743 38.5639 77.0122 38.3122 77.2525C38.0605 77.4927 37.9161 77.8167 37.9092 78.1565V83.3118C37.9092 83.6536 38.0514 83.9814 38.3046 84.2231C38.5578 84.4648 38.9011 84.6006 39.2592 84.6006Z" fill="black" stroke="black"/>
<path d="M39.2592 74.29C39.6172 74.29 39.9606 74.1542 40.2138 73.9125C40.4669 73.6708 40.6092 73.343 40.6092 73.0012V67.8459C40.6092 67.5041 40.4669 67.1763 40.2138 66.9346C39.9606 66.6929 39.6172 66.5571 39.2592 66.5571C38.9033 66.5637 38.5639 66.7016 38.3122 66.9419C38.0605 67.1822 37.9161 67.5062 37.9092 67.8459V73.0012C37.9092 73.343 38.0514 73.6708 38.3046 73.9125C38.5578 74.1542 38.9011 74.29 39.2592 74.29Z" fill="black" stroke="black"/>
<path d="M39.7182 105.222C39.8958 105.206 40.0683 105.157 40.2257 105.077C40.3832 104.997 40.5224 104.887 40.6354 104.756C40.7484 104.624 40.8329 104.472 40.884 104.309C40.9351 104.145 40.9518 103.974 40.9332 103.805C40.7712 102.129 40.6632 100.454 40.6362 98.6495C40.64 98.477 40.6068 98.3057 40.5386 98.1459C40.4704 97.9862 40.3687 97.8415 40.2397 97.7208C40.1107 97.6 39.9571 97.5058 39.7885 97.4438C39.6198 97.3819 39.4397 97.3536 39.2592 97.3607C39.0819 97.364 38.907 97.4007 38.7446 97.4686C38.5821 97.5365 38.4353 97.6343 38.3124 97.7563C38.1896 97.8784 38.0931 98.0224 38.0285 98.1801C37.964 98.3377 37.9326 98.506 37.9362 98.6753C37.9362 100.394 38.0442 102.112 38.2602 103.831C38.2874 104.147 38.4387 104.443 38.6839 104.658C38.9291 104.873 39.2502 104.992 39.5832 104.99L39.7182 105.222Z" fill="black" stroke="black"/>
<path d="M147.528 122.08C147.363 122.018 147.187 121.987 147.01 121.989C146.832 121.991 146.657 122.027 146.494 122.094C146.331 122.161 146.183 122.258 146.06 122.38C145.936 122.501 145.839 122.645 145.773 122.802C145.125 124.349 144.396 125.895 143.613 127.39C143.453 127.695 143.426 128.047 143.537 128.371C143.648 128.695 143.889 128.963 144.207 129.117C144.398 129.217 144.611 129.27 144.828 129.272C145.078 129.274 145.323 129.207 145.534 129.079C145.745 128.951 145.912 128.767 146.016 128.55C146.862 126.987 147.618 125.388 148.284 123.756C148.41 123.438 148.401 123.085 148.26 122.773C148.119 122.46 147.857 122.212 147.528 122.08Z" fill="black" stroke="black"/>
<path d="M79.2997 32.4303H79.6237L84.8617 31.2446C85.039 31.2057 85.2065 31.1338 85.3547 31.033C85.5029 30.9323 85.6288 30.8047 85.7253 30.6575C85.8219 30.5103 85.8871 30.3464 85.9173 30.1751C85.9474 30.0038 85.942 29.8286 85.9012 29.6593C85.8604 29.4901 85.7851 29.3302 85.6796 29.1887C85.5741 29.0472 85.4404 28.927 85.2862 28.8348C85.132 28.7427 84.9603 28.6804 84.781 28.6516C84.6016 28.6228 84.418 28.628 84.2407 28.667L79.0027 29.8527C78.6447 29.8903 78.317 30.0621 78.0916 30.3304C77.8663 30.5987 77.7619 30.9414 77.8012 31.2832C77.8406 31.6251 78.0206 31.9379 78.3016 32.1531C78.5827 32.3682 78.9417 32.4679 79.2997 32.4303Z" fill="black" stroke="black"/>
<path d="M42.823 113.729C42.364 112.105 41.986 110.456 41.662 108.806C41.6301 108.637 41.5636 108.475 41.4662 108.331C41.3689 108.186 41.2427 108.061 41.0948 107.963C40.796 107.764 40.427 107.688 40.069 107.749C39.711 107.811 39.3932 108.006 39.1856 108.291C38.978 108.576 38.8976 108.928 38.962 109.27C39.286 110.971 39.691 112.698 40.177 114.425C40.2497 114.7 40.417 114.943 40.652 115.116C40.8871 115.289 41.1762 115.382 41.473 115.379H41.824C42.0076 115.341 42.1807 115.266 42.3325 115.161C42.4842 115.055 42.6111 114.92 42.7052 114.765C42.7992 114.61 42.8582 114.437 42.8785 114.259C42.8988 114.081 42.8799 113.9 42.823 113.729Z" fill="black" stroke="black"/>
<path d="M46.3872 123.215C45.6582 121.694 44.9832 120.122 44.3892 118.549C44.3317 118.391 44.2419 118.245 44.125 118.121C44.0081 117.996 43.8664 117.895 43.7081 117.823C43.5498 117.751 43.3782 117.71 43.2031 117.702C43.028 117.694 42.853 117.719 42.6882 117.776C42.3512 117.893 42.0752 118.13 41.9189 118.438C41.7626 118.747 41.7383 119.101 41.8512 119.426C42.4722 121.049 43.1742 122.699 43.9302 124.297C44.0349 124.521 44.2056 124.711 44.4213 124.843C44.637 124.976 44.8885 125.046 45.1452 125.045C45.3428 125.051 45.5386 125.006 45.7122 124.916C46.0375 124.775 46.2912 124.517 46.4177 124.198C46.5443 123.88 46.5333 123.526 46.3872 123.215Z" fill="black" stroke="black"/>
<path d="M39.2592 63.9802C39.6172 63.9802 39.9606 63.8444 40.2138 63.6027C40.4669 63.361 40.6092 63.0332 40.6092 62.6914V57.5361C40.6092 57.1943 40.4669 56.8665 40.2138 56.6248C39.9606 56.3831 39.6172 56.2473 39.2592 56.2473C38.9033 56.2539 38.5639 56.3918 38.3122 56.6321C38.0605 56.8724 37.9161 57.1964 37.9092 57.5361V62.6914C37.9092 63.0332 38.0514 63.361 38.3046 63.6027C38.5578 63.8444 38.9011 63.9802 39.2592 63.9802Z" fill="black" stroke="black"/>
<path d="M58.3212 37.1731H58.6452L63.9102 35.8843C64.2569 35.8047 64.5565 35.5974 64.7437 35.3076C64.9309 35.0179 64.9903 34.6692 64.9091 34.3377C64.8258 34.0067 64.6087 33.7206 64.3051 33.5419C64.0016 33.3632 63.6364 33.3064 63.2892 33.384L57.8892 34.5697C57.7157 34.6059 57.5516 34.6751 57.4067 34.7732C57.2618 34.8713 57.1391 34.9962 57.0459 35.1406C56.9527 35.2849 56.8908 35.4457 56.8641 35.6133C56.8373 35.7809 56.8462 35.952 56.8902 36.1162C56.9494 36.4303 57.1285 36.7121 57.3928 36.9074C57.6572 37.1026 57.9879 37.1973 58.3212 37.1731Z" fill="black" stroke="black"/>
<path d="M68.8509 34.802H69.1479L74.4129 33.6162C74.7596 33.5367 75.0592 33.3294 75.2464 33.0396C75.4336 32.7498 75.4931 32.4012 75.4119 32.0697C75.3736 31.9034 75.3012 31.7461 75.1989 31.6067C75.0965 31.4673 74.9663 31.3487 74.8157 31.2576C74.6651 31.1665 74.497 31.1049 74.3213 31.0761C74.1456 31.0474 73.9656 31.0522 73.7919 31.0902L68.3919 32.2759C68.0339 32.3169 67.7075 32.492 67.4848 32.7627C67.262 33.0334 67.1609 33.3775 67.2039 33.7194C67.2469 34.0612 67.4303 34.3727 67.7139 34.5854C67.9974 34.7981 68.3579 34.8945 68.7159 34.8535L68.8509 34.802Z" fill="black" stroke="black"/>
<path d="M151.74 47.793C152.099 47.793 152.442 47.6572 152.695 47.4155C152.948 47.1738 153.09 46.846 153.09 46.5041V41.3489C153.09 41.0071 152.948 40.6792 152.695 40.4375C152.442 40.1958 152.099 40.0601 151.74 40.0601C151.382 40.0601 151.039 40.1958 150.786 40.4375C150.533 40.6792 150.391 41.0071 150.391 41.3489V46.5041C150.391 46.846 150.533 47.1738 150.786 47.4155C151.039 47.6572 151.382 47.793 151.74 47.793Z" fill="black" stroke="black"/>
<path d="M47.8177 39.5187H48.1417L53.3797 38.333C53.557 38.294 53.7245 38.2222 53.8727 38.1214C54.0209 38.0207 54.1468 37.8931 54.2433 37.7459C54.3399 37.5987 54.4051 37.4348 54.4352 37.2635C54.4654 37.0922 54.46 36.917 54.4192 36.7477C54.3784 36.5785 54.3031 36.4185 54.1976 36.2771C54.0921 36.1356 53.9584 36.0154 53.8042 35.9232C53.65 35.8311 53.4783 35.7688 53.2989 35.74C53.1195 35.7112 52.936 35.7164 52.7587 35.7553L47.5207 36.9153C47.1706 37.0009 46.8685 37.2121 46.6774 37.505C46.4863 37.7979 46.4209 38.1498 46.4947 38.4876C46.557 38.7787 46.7226 39.0404 46.9637 39.2283C47.2048 39.4161 47.5065 39.5187 47.8177 39.5187Z" fill="black" stroke="black"/>
<path d="M39.2592 53.6694C39.6172 53.6694 39.9606 53.5336 40.2138 53.2919C40.4669 53.0502 40.6092 52.7224 40.6092 52.3806V47.2253C40.6092 46.8835 40.4669 46.5557 40.2138 46.314C39.9606 46.0723 39.6172 45.9365 39.2592 45.9365C38.9033 45.9431 38.5639 46.081 38.3122 46.3213C38.0605 46.5616 37.9161 46.8856 37.9092 47.2253V52.3806C37.9092 52.7224 38.0514 53.0502 38.3046 53.2919C38.5578 53.5336 38.9011 53.6694 39.2592 53.6694Z" fill="black" stroke="black"/>
<path d="M39.2591 43.3593C39.6171 43.3593 39.9605 43.2235 40.2137 42.9818C40.4669 42.7401 40.6091 42.4123 40.6091 42.0705V41.1683L42.8771 40.6786C43.2259 40.5932 43.5258 40.3808 43.7125 40.0869C43.8992 39.793 43.9579 39.441 43.8761 39.1062C43.7927 38.7752 43.5756 38.4892 43.2721 38.3105C42.9685 38.1318 42.6033 38.075 42.2561 38.1525L38.9621 38.9C38.6598 38.9601 38.389 39.1193 38.1967 39.35C38.0043 39.5807 37.9026 39.8683 37.9091 40.1631V42.0705C37.9091 42.2398 37.944 42.4074 38.0119 42.5637C38.0797 42.7201 38.1791 42.8622 38.3045 42.9818C38.4299 43.1015 38.5787 43.1965 38.7425 43.2612C38.9063 43.326 39.0818 43.3593 39.2591 43.3593Z" fill="black" stroke="black"/>
<path d="M121.095 34.5955L126.495 35.7812H126.792C126.97 35.8015 127.149 35.7883 127.321 35.7423C127.493 35.6963 127.654 35.6184 127.794 35.5131C127.935 35.4077 128.052 35.2771 128.14 35.1285C128.227 34.9799 128.283 34.8163 128.304 34.647C128.326 34.4778 128.312 34.3062 128.264 34.142C128.215 33.9779 128.134 33.8244 128.024 33.6904C127.913 33.5564 127.776 33.4444 127.621 33.3608C127.465 33.2773 127.294 33.2239 127.116 33.2036L121.851 32.0178C121.679 31.9759 121.5 31.9674 121.325 31.9929C121.149 32.0185 120.981 32.0775 120.829 32.1665C120.678 32.2555 120.547 32.3726 120.445 32.511C120.342 32.6493 120.269 32.8059 120.231 32.9716C120.121 33.2963 120.15 33.6497 120.312 33.9542C120.474 34.2587 120.755 34.4893 121.095 34.5955Z" fill="black" stroke="black"/>
<path d="M131.599 36.9665L136.998 38.1522H137.322C137.625 38.1477 137.918 38.0462 138.153 37.8638C138.388 37.6815 138.552 37.429 138.618 37.147C138.662 36.9827 138.671 36.8116 138.645 36.644C138.618 36.4764 138.556 36.3156 138.463 36.1713C138.37 36.0269 138.247 35.902 138.102 35.8039C137.957 35.7058 137.793 35.6366 137.619 35.6004L132.355 34.4147C132.004 34.3449 131.639 34.4081 131.337 34.591C131.034 34.7738 130.818 35.0619 130.735 35.3942C130.647 35.7119 130.687 36.0496 130.846 36.3406C131.006 36.6317 131.275 36.855 131.599 36.9665Z" fill="black" stroke="black"/>
<path d="M142.129 39.3122L147.529 40.4979H147.826C148.184 40.5355 148.543 40.4358 148.824 40.2207C149.105 40.0056 149.285 39.6927 149.324 39.3509C149.363 39.0091 149.259 38.6663 149.034 38.398C148.808 38.1297 148.481 37.9579 148.123 37.9203L142.885 36.7346C142.527 36.656 142.15 36.7164 141.839 36.9025C141.528 37.0886 141.306 37.3852 141.224 37.727C141.142 38.0688 141.205 38.4278 141.4 38.7251C141.595 39.0224 141.906 39.2336 142.264 39.3122H142.129Z" fill="black" stroke="black"/>
<path d="M110.593 32.2234L115.831 33.4092H116.155C116.461 33.4059 116.757 33.3053 116.997 33.1232C117.237 32.9411 117.406 32.688 117.478 32.4039C117.518 32.238 117.523 32.0662 117.492 31.8984C117.462 31.7307 117.398 31.5703 117.302 31.4265C117.207 31.2827 117.083 31.1583 116.937 31.0607C116.791 30.963 116.626 30.8938 116.452 30.8573L111.214 29.6716C111.037 29.6327 110.853 29.6275 110.674 29.6563C110.494 29.6851 110.322 29.7473 110.168 29.8395C110.014 29.9316 109.88 30.0519 109.775 30.1933C109.669 30.3348 109.594 30.4947 109.553 30.664C109.513 30.8332 109.507 31.0085 109.537 31.1798C109.567 31.351 109.633 31.5149 109.729 31.6621C109.826 31.8093 109.952 31.9369 110.1 32.0377C110.248 32.1384 110.416 32.2103 110.593 32.2492V32.2234Z" fill="black" stroke="black"/>
<path d="M100.062 29.8783L105.462 31.064H105.786C105.964 31.0826 106.143 31.0677 106.314 31.0202C106.486 30.9726 106.645 30.8933 106.784 30.7868C106.924 30.6803 107.039 30.5486 107.125 30.3994C107.211 30.2501 107.265 30.0862 107.285 29.917C107.304 29.7477 107.289 29.5764 107.239 29.413C107.189 29.2495 107.106 29.0969 106.994 28.9641C106.883 28.8313 106.745 28.7207 106.589 28.6387C106.432 28.5568 106.261 28.505 106.083 28.4864L100.818 27.3264C100.646 27.2845 100.467 27.276 100.292 27.3015C100.116 27.3271 99.9475 27.3861 99.7964 27.4751C99.6452 27.5641 99.5143 27.6812 99.4116 27.8196C99.3089 27.9579 99.2363 28.1145 99.1984 28.2802C99.0958 28.6015 99.1288 28.9484 99.2901 29.2469C99.4515 29.5454 99.7286 29.7719 100.062 29.8783Z" fill="black" stroke="black"/>
<path d="M94.8248 26.3466L89.4248 27.5323C89.0668 27.5699 88.7391 27.7417 88.5138 28.01C88.2884 28.2783 88.184 28.6211 88.2234 28.9629C88.2627 29.3047 88.4427 29.6176 88.7238 29.8327C89.0048 30.0478 89.3638 30.1475 89.7218 30.1099H90.0458L95.4998 28.8469C95.6771 28.808 95.8446 28.7361 95.9928 28.6353C96.141 28.5346 96.2669 28.407 96.3635 28.2598C96.46 28.1126 96.5252 27.9487 96.5554 27.7774C96.5855 27.6061 96.5801 27.4309 96.5393 27.2616C96.4985 27.0924 96.4232 26.9325 96.3177 26.791C96.2122 26.6495 96.0785 26.5293 95.9244 26.4371C95.7702 26.345 95.5985 26.2827 95.4191 26.2539C95.2397 26.2251 95.0561 26.2303 94.8788 26.2692L94.8248 26.3466Z" fill="black" stroke="black"/>
<path d="M150.957 109.63H151.119C151.447 109.633 151.764 109.523 152.013 109.319C152.261 109.115 152.423 108.832 152.469 108.522C152.712 106.795 152.874 105.016 152.982 103.367C152.997 103.026 152.873 102.694 152.637 102.439C152.4 102.184 152.069 102.027 151.713 102.001C151.535 101.987 151.356 102.007 151.186 102.061C151.017 102.115 150.86 102.201 150.727 102.314C150.593 102.428 150.484 102.566 150.408 102.72C150.332 102.874 150.289 103.042 150.282 103.212C150.282 104.888 150.039 106.589 149.796 108.367C149.8 108.676 149.918 108.973 150.131 109.204C150.345 109.436 150.637 109.587 150.957 109.63Z" fill="black" stroke="black"/>
<path d="M151.74 78.7241C152.099 78.7241 152.442 78.5883 152.695 78.3466C152.948 78.1049 153.09 77.7771 153.09 77.4353V72.28C153.09 71.9382 152.948 71.6104 152.695 71.3687C152.442 71.127 152.099 70.9912 151.74 70.9912C151.382 70.9912 151.039 71.127 150.786 71.3687C150.533 71.6104 150.391 71.9382 150.391 72.28V77.4353C150.391 77.7771 150.533 78.1049 150.786 78.3466C151.039 78.5883 151.382 78.7241 151.74 78.7241Z" fill="black" stroke="black"/>
<path d="M151.74 89.0354C152.099 89.0354 152.442 88.8996 152.695 88.6579C152.948 88.4162 153.09 88.0884 153.09 87.7466V82.5913C153.09 82.2495 152.948 81.9217 152.695 81.68C152.442 81.4383 152.099 81.3025 151.74 81.3025C151.382 81.3025 151.039 81.4383 150.786 81.68C150.533 81.9217 150.391 82.2495 150.391 82.5913V87.7466C150.391 88.0884 150.533 88.4162 150.786 88.6579C151.039 88.8996 151.382 89.0354 151.74 89.0354Z" fill="black" stroke="black"/>
<path d="M151.74 68.4138C152.099 68.4138 152.442 68.278 152.695 68.0363C152.948 67.7946 153.09 67.4668 153.09 67.125V61.9697C153.09 61.6279 152.948 61.3001 152.695 61.0584C152.442 60.8167 152.099 60.6809 151.74 60.6809C151.382 60.6809 151.039 60.8167 150.786 61.0584C150.533 61.3001 150.391 61.6279 150.391 61.9697V67.125C150.391 67.4668 150.533 67.7946 150.786 68.0363C151.039 68.278 151.382 68.4138 151.74 68.4138Z" fill="black" stroke="black"/>
<path d="M147.528 118.033C147.427 118.358 147.464 118.708 147.63 119.007C147.797 119.306 148.081 119.53 148.419 119.632C148.553 119.657 148.691 119.657 148.824 119.632C149.113 119.633 149.395 119.547 149.628 119.384C149.861 119.222 150.034 118.992 150.12 118.729C150.633 117.054 151.119 115.353 151.497 113.574C151.536 113.405 151.54 113.23 151.508 113.059C151.476 112.889 151.41 112.726 151.312 112.58C151.114 112.285 150.802 112.077 150.444 112.002C150.267 111.965 150.084 111.961 149.905 111.991C149.726 112.022 149.556 112.085 149.403 112.179C149.094 112.367 148.876 112.665 148.797 113.007C148.5 114.786 148.041 116.435 147.528 118.033Z" fill="black" stroke="black"/>
<path d="M151.74 99.3457C152.099 99.3457 152.442 99.2099 152.695 98.9682C152.948 98.7265 153.09 98.3987 153.09 98.0569V92.9016C153.09 92.5598 152.948 92.232 152.695 91.9903C152.442 91.7486 152.099 91.6128 151.74 91.6128C151.382 91.6128 151.039 91.7486 150.786 91.9903C150.533 92.232 150.391 92.5598 150.391 92.9016V98.0569C150.391 98.3987 150.533 98.7265 150.786 98.9682C151.039 99.2099 151.382 99.3457 151.74 99.3457Z" fill="black" stroke="black"/>
<path d="M151.74 58.1035C152.099 58.1035 152.442 57.9677 152.695 57.726C152.948 57.4843 153.09 57.1565 153.09 56.8147V51.6594C153.09 51.3176 152.948 50.9898 152.695 50.7481C152.442 50.5064 152.099 50.3706 151.74 50.3706C151.382 50.3706 151.039 50.5064 150.786 50.7481C150.533 50.9898 150.391 51.3176 150.391 51.6594V56.8147C150.391 57.1565 150.533 57.4843 150.786 57.726C151.039 57.9677 151.382 58.1035 151.74 58.1035Z" fill="black" stroke="black"/>
<path d="M65.8 78.4152C65.8163 84.5077 67.7936 90.4481 71.4639 95.4321C75.1343 100.416 80.3203 104.203 86.3199 106.279C78.8929 107.516 71.8178 110.218 65.5463 114.212C59.2748 118.207 53.945 123.406 49.8971 129.478C49.5191 128.885 49.1141 128.292 48.7631 127.674C48.6762 127.525 48.5595 127.394 48.4195 127.288C48.2795 127.182 48.1191 127.103 47.9474 127.057C47.7756 127.01 47.5959 126.996 47.4186 127.016C47.2412 127.035 47.0696 127.088 46.9136 127.171C46.7576 127.254 46.6202 127.365 46.5093 127.499C46.3984 127.633 46.3162 127.786 46.2673 127.95C46.2184 128.114 46.2038 128.285 46.2244 128.455C46.2449 128.624 46.3002 128.788 46.3871 128.937C47.1161 130.2 47.9261 131.514 48.7631 132.623C48.9521 132.881 49.0871 133.138 49.2761 133.396L49.4381 133.551C50.3561 134.865 51.3281 136.128 52.3541 137.366C52.3917 137.468 52.4464 137.564 52.5161 137.649C52.7861 138.01 53.137 138.319 53.434 138.68C53.731 139.041 54.109 139.428 54.433 139.789C54.757 140.149 55.513 141.052 56.107 141.645H56.242C57.403 142.856 58.645 143.99 59.887 145.099V145.253C60.292 145.614 60.751 145.949 61.183 146.31C61.615 146.671 62.479 147.367 63.154 147.857C63.829 148.346 63.775 148.398 64.099 148.63C65.503 149.661 66.934 150.64 68.419 151.568H68.581C69.796 152.29 71.0109 152.986 72.2529 153.656L81.1629 159.095L82.1349 159.688L94.4468 167.189C94.6552 167.307 94.893 167.369 95.1353 167.369C95.3776 167.369 95.6154 167.307 95.8238 167.189L101.899 164.018L106.624 161.441L111.7 159.611L116.452 157.033L121.204 154.455C122.365 153.759 123.499 153.012 124.606 152.264L125.308 151.749C126.307 151.053 127.252 150.357 128.197 149.609L128.953 149.042V148.888C130.249 147.831 131.653 146.722 132.733 145.588H132.895C133.354 145.15 133.759 144.686 134.218 144.222C134.677 143.758 135.379 143.062 135.919 142.469C136.459 141.876 136.405 141.98 136.621 141.722C136.626 141.653 136.626 141.584 136.621 141.516C137.701 140.278 138.754 138.938 139.726 137.727C139.726 137.727 139.726 137.727 139.888 137.598C140.05 137.469 140.158 137.185 140.32 136.979C141.076 135.948 141.805 134.891 142.507 133.834L142.912 133.241C143.008 133.097 143.073 132.936 143.103 132.766C143.132 132.597 143.125 132.424 143.082 132.258C143.039 132.092 142.961 131.935 142.853 131.799C142.745 131.662 142.608 131.548 142.453 131.463C142.381 131.385 142.299 131.315 142.21 131.257C138.411 124.98 133.269 119.539 127.118 115.289C120.968 111.038 113.948 108.074 106.516 106.589C111.954 104.888 116.795 101.785 120.502 97.6232C124.21 93.4612 126.641 88.402 127.526 83.0041C128.411 77.6063 127.717 72.0799 125.519 67.0352C123.321 61.9906 119.706 57.6239 115.072 54.4175C110.438 51.2112 104.966 49.2898 99.2604 48.8656C93.5548 48.4414 87.8373 49.5309 82.7394 52.0138C77.6416 54.4967 73.3617 58.2764 70.3724 62.9354C67.3831 67.5945 65.8007 72.9516 65.8 78.4152ZM140.239 133.035L139.186 134.53C137.63 136.739 135.925 138.848 134.083 140.845L132.355 142.624C130.588 144.396 128.713 146.066 126.739 147.625C125.767 148.398 124.741 149.145 123.715 149.867C122.689 150.589 121.258 151.543 119.989 152.29L107.596 158.708L105.76 159.611L95.5538 164.766L93.0428 163.219L88.4799 160.642L83.9439 157.884L79.2999 155.1L74.7639 152.342L73.8999 151.878C72.7119 151.242 71.5509 150.572 70.4169 149.867C68.5399 148.726 66.7366 147.478 65.017 146.13L63.1 144.609C60.7921 142.693 58.6185 140.635 56.593 138.448L55.648 137.391C54.1276 135.651 52.7036 133.835 51.3821 131.953C55.9901 124.585 62.5449 118.503 70.39 114.314C78.2352 110.126 87.0953 107.98 96.0829 108.089C105.071 108.199 113.87 110.561 121.601 114.939C129.331 119.317 135.721 125.558 140.131 133.035H140.239ZM96.8498 51.3501C102.457 51.3501 107.938 52.9374 112.6 55.9114C117.262 58.8853 120.896 63.1123 123.042 68.0578C125.187 73.0033 125.749 78.4452 124.655 83.6953C123.561 88.9455 120.861 93.768 116.896 97.5531C112.931 101.338 107.88 103.916 102.381 104.96C96.8812 106.005 91.181 105.469 86.0008 103.42C80.8205 101.372 76.3929 97.9026 73.2778 93.4518C70.1627 89.001 68.5 83.7682 68.5 78.4152C68.5071 71.2392 71.4963 64.359 76.8113 59.2848C82.1264 54.2106 89.3332 51.3569 96.8498 51.3501Z" fill="black" stroke="black"/>
</svg>
