<svg width="191" height="191" viewBox="0 0 191 191" fill="none" xmlns="http://www.w3.org/2000/svg">
<path fill-rule="evenodd" clip-rule="evenodd" d="M162.826 162H28.1739C20.3464 162 14 155.779 14 148.105V43.8947C14 36.2214 20.3464 30 28.1739 30H162.826C170.654 30 177 36.2214 177 43.8947V148.105C177 155.779 170.654 162 162.826 162ZM169.913 43.8947C169.913 40.0598 166.738 36.9474 162.826 36.9474H28.1739C24.2619 36.9474 21.087 40.0598 21.087 43.8947V64.7368H169.913V43.8947ZM169.913 71.6842H21.087V148.105C21.087 151.94 24.2619 155.053 28.1739 155.053H162.826C166.738 155.053 169.913 151.94 169.913 148.105V71.6842ZM155.739 120.316H148.652C146.696 120.316 145.109 118.763 145.109 116.842V109.895C145.109 107.977 146.696 106.421 148.652 106.421H155.739C157.699 106.421 159.283 107.977 159.283 109.895V116.842C159.283 118.763 157.699 120.316 155.739 120.316ZM155.739 96H148.652C146.696 96 145.109 94.4473 145.109 92.5263V85.5789C145.109 83.658 146.696 82.1053 148.652 82.1053H155.739C157.699 82.1053 159.283 83.658 159.283 85.5789V92.5263C159.283 94.4473 157.699 96 155.739 96ZM127.391 120.316H120.304C118.348 120.316 116.761 118.763 116.761 116.842V109.895C116.761 107.977 118.348 106.421 120.304 106.421H127.391C129.351 106.421 130.935 107.977 130.935 109.895V116.842C130.935 118.763 129.351 120.316 127.391 120.316ZM127.391 96H120.304C118.348 96 116.761 94.4473 116.761 92.5263V85.5789C116.761 83.658 118.348 82.1053 120.304 82.1053H127.391C129.351 82.1053 130.935 83.658 130.935 85.5789V92.5263C130.935 94.4473 129.351 96 127.391 96ZM99.0435 120.316H91.9565C89.997 120.316 88.413 118.763 88.413 116.842V109.895C88.413 107.977 89.997 106.421 91.9565 106.421H99.0435C101.003 106.421 102.587 107.977 102.587 109.895V116.842C102.587 118.763 101.003 120.316 99.0435 120.316ZM99.0435 96H91.9565C89.997 96 88.413 94.4473 88.413 92.5263V85.5789C88.413 83.658 89.997 82.1053 91.9565 82.1053H99.0435C101.003 82.1053 102.587 83.658 102.587 85.5789V92.5263C102.587 94.4473 101.003 96 99.0435 96ZM70.6957 144.632H63.6087C61.6492 144.632 60.0652 143.079 60.0652 141.158V134.211C60.0652 132.29 61.6492 130.737 63.6087 130.737H70.6957C72.6552 130.737 74.2391 132.29 74.2391 134.211V141.158C74.2391 143.079 72.6552 144.632 70.6957 144.632ZM70.6957 120.316H63.6087C61.6492 120.316 60.0652 118.763 60.0652 116.842V109.895C60.0652 107.977 61.6492 106.421 63.6087 106.421H70.6957C72.6552 106.421 74.2391 107.977 74.2391 109.895V116.842C74.2391 118.763 72.6552 120.316 70.6957 120.316ZM70.6957 96H63.6087C61.6492 96 60.0652 94.4473 60.0652 92.5263V85.5789C60.0652 83.658 61.6492 82.1053 63.6087 82.1053H70.6957C72.6552 82.1053 74.2391 83.658 74.2391 85.5789V92.5263C74.2391 94.4473 72.6552 96 70.6957 96ZM42.3478 144.632H35.2609C33.3013 144.632 31.7174 143.079 31.7174 141.158V134.211C31.7174 132.29 33.3013 130.737 35.2609 130.737H42.3478C44.3074 130.737 45.8913 132.29 45.8913 134.211V141.158C45.8913 143.079 44.3074 144.632 42.3478 144.632ZM42.3478 120.316H35.2609C33.3013 120.316 31.7174 118.763 31.7174 116.842V109.895C31.7174 107.977 33.3013 106.421 35.2609 106.421H42.3478C44.3074 106.421 45.8913 107.977 45.8913 109.895V116.842C45.8913 118.763 44.3074 120.316 42.3478 120.316ZM91.9565 130.737H99.0435C101.003 130.737 102.587 132.29 102.587 134.211V141.158C102.587 143.079 101.003 144.632 99.0435 144.632H91.9565C89.997 144.632 88.413 143.079 88.413 141.158V134.211C88.413 132.29 89.997 130.737 91.9565 130.737Z" fill="#001F25"/>
</svg>
