<svg width="109" height="95" viewBox="0 0 109 95" fill="none" xmlns="http://www.w3.org/2000/svg">
<path d="M107.314 74.7119C107.32 74.4079 107.367 74.1289 107.367 73.8259C107.367 60.7219 102.472 49.4109 91.804 45.9199L84.59 56.2319L76.572 46.0559C66.507 49.2649 62.042 58.8309 62.042 71.6359C62.042 72.6669 62.072 73.6939 62.13 74.7129L107.314 74.7119Z" fill="#ADB3BC" stroke="#ADB3BC" stroke-width="2" stroke-miterlimit="10"/>
<path d="M71.0919 25.4749L71.3699 23.1639L71.8309 20.9179L72.1519 19.9769L72.5809 19.0919L73.3419 17.8349L73.8629 16.9739L74.5469 16.2549L75.3309 15.4729L76.4469 14.6999L77.8369 13.9239L79.4339 13.2769L80.7319 12.9189L81.4409 12.7229H82.3759H83.2889H85.0439H86.4319L88.4629 13.1849L90.5889 14.3869L91.6049 15.5869L93.3609 17.5269L94.4709 19.7449L94.9319 20.8539L95.4839 23.7189L95.6719 25.3819V26.0279L96.2269 26.3979L96.5019 27.8769L96.4089 29.5409L95.7659 31.6649L95.1149 32.6819L94.3769 32.9589L93.8219 34.9919L92.6219 37.8559L91.7879 39.0569L90.6819 40.7209L88.8339 42.1989L86.7999 43.7699L85.2299 44.2309L82.9199 44.5089L80.2379 44.2309L77.6519 42.8449L76.2659 41.4599L75.0639 39.4269L73.3999 36.5629L72.6649 34.8979L71.7379 33.2349L71.2769 32.4959L70.5379 31.6649L70.0759 30.6489L69.9819 28.6159L70.0759 26.8599V26.2139L70.7229 25.9379L71.0919 25.4749Z" fill="#ADB3BC" stroke="#ADB3BC" stroke-width="2" stroke-miterlimit="10"/>
<path d="M60.719 93.2209C60.727 92.8249 60.785 92.4619 60.785 92.0689C60.785 75.0369 54.426 60.3309 40.556 55.7939L31.177 69.1999L20.755 55.9649C7.67101 60.1409 1.86401 72.5739 1.86401 89.2209C1.86401 90.5609 1.90501 91.8929 1.97901 93.2209H60.719Z" fill="#ADB3BC" stroke="#ADB3BC" stroke-width="2" stroke-miterlimit="10"/>
<path d="M16.528 33.5799L16.855 30.8779L17.395 28.2489L17.771 27.1469L18.273 26.1129L19.163 24.6409L19.771 23.6349L20.57 22.7939L21.486 21.8769L22.798 20.9749L24.422 20.0669L26.286 19.3089L27.81 18.8899L28.639 18.6609H29.73H30.801H32.853H34.477L36.854 19.2009L39.341 20.6069L40.53 22.0129L42.585 24.2829L43.882 26.8769L44.42 28.1739L45.07 31.5249L45.287 33.4709V34.2289L45.936 34.6619L46.259 36.3909L46.151 38.3369L45.396 40.8229L44.637 42.0119L43.773 42.3359L43.124 44.7149L41.719 48.0659L40.744 49.4729L39.449 51.4179L37.287 53.1479L34.907 54.9839L33.07 55.5249L30.367 55.8519L27.231 55.5249L24.205 53.9039L22.582 52.2819L21.179 49.9039L19.231 46.5539L18.368 44.6059L17.285 42.6609L16.746 41.7959L15.88 40.8229L15.341 39.6339L15.231 37.2549L15.341 35.2019V34.4449L16.097 34.1209L16.528 33.5799Z" fill="#ADB3BC" stroke="#ADB3BC" stroke-width="2" stroke-miterlimit="10"/>
<path d="M72.479 9.72583C74.1359 9.72583 75.479 8.38268 75.479 6.72583C75.479 5.06898 74.1359 3.72583 72.479 3.72583C70.8221 3.72583 69.479 5.06898 69.479 6.72583C69.479 8.38268 70.8221 9.72583 72.479 9.72583Z" stroke="#ADB3BC" stroke-width="2" stroke-miterlimit="10"/>
<path d="M59.877 9.92588C62.1966 9.92588 64.077 8.04548 64.077 5.72588C64.077 3.40628 62.1966 1.52588 59.877 1.52588C57.5574 1.52588 55.677 3.40628 55.677 5.72588C55.677 8.04548 57.5574 9.92588 59.877 9.92588Z" stroke="#ADB3BC" stroke-width="2" stroke-miterlimit="10"/>
<path d="M45.676 14.9249C48.3269 14.9249 50.476 12.7759 50.476 10.125C50.476 7.47398 48.3269 5.32495 45.676 5.32495C43.025 5.32495 40.876 7.47398 40.876 10.125C40.876 12.7759 43.025 14.9249 45.676 14.9249Z" stroke="#ADB3BC" stroke-width="2" stroke-miterlimit="10"/>
</svg>
