<svg width="20" height="20" viewBox="0 0 20 20" fill="none" xmlns="http://www.w3.org/2000/svg">
<path d="M8.8 20C6.4661 20 4.22778 19.0729 2.57746 17.4226C0.92714 15.7722 0 13.5339 0 11.2C0 8.86612 0.92714 6.62781 2.57746 4.97748C4.22778 3.32716 6.4661 2.40002 8.8 2.40002C8.90609 2.40002 9.00783 2.44217 9.08284 2.51718C9.15786 2.5922 9.2 2.69394 9.2 2.80002V10.8H17.2C17.3061 10.8 17.4078 10.8422 17.4828 10.9172C17.5579 10.9922 17.6 11.0939 17.6 11.2C17.6 12.3557 17.3724 13.5 16.9301 14.5676C16.4879 15.6353 15.8397 16.6054 15.0225 17.4226C14.2054 18.2397 13.2353 18.8879 12.1676 19.3302C11.0999 19.7724 9.95563 20 8.8 20Z" fill="#ADB3BC"/>
<path d="M19.6 9.2H11.2C11.0939 9.2 10.9922 9.15786 10.9172 9.08284C10.8421 9.00783 10.8 8.90609 10.8 8.8V0.4C10.8 0.293913 10.8421 0.192172 10.9172 0.117157C10.9922 0.0421428 11.0939 0 11.2 0C13.5339 0 15.7722 0.92714 17.4225 2.57746C19.0729 4.22778 20 6.4661 20 8.8C20 8.90609 19.9579 9.00783 19.8828 9.08284C19.8078 9.15786 19.7061 9.2 19.6 9.2Z" fill="#ADB3BC"/>
</svg>
