<svg width="20" height="21" viewBox="0 0 20 21" fill="none" xmlns="http://www.w3.org/2000/svg">
<path fill-rule="evenodd" clip-rule="evenodd" d="M15.7458 2.9432L15.7437 2.94389C15.2702 3.21753 14.6857 3.21753 14.2122 2.94389C13.7386 2.67094 13.4464 2.16501 13.4464 1.61773V1.61566C13.4464 1.18693 13.2761 0.776123 12.9728 0.472843C12.6702 0.170251 12.2594 0 11.8307 0C10.8127 0 9.18734 0 8.16929 0C7.74056 0 7.32975 0.170251 7.02716 0.472843C6.72388 0.776123 6.55363 1.18693 6.55363 1.61566V1.61773C6.55363 2.16501 6.26137 2.67094 5.78784 2.94389C5.31431 3.21753 4.7298 3.21753 4.25627 2.94389L4.2542 2.9432C3.88337 2.72884 3.44224 2.67094 3.02798 2.78191C2.61442 2.8922 2.26151 3.16308 2.04715 3.5346C1.53846 4.41618 0.725117 5.82368 0.216433 6.70527C0.00206804 7.0761 -0.055831 7.51723 0.0551422 7.93149C0.166115 8.34505 0.437001 8.69796 0.80783 8.91232L0.809898 8.9137C1.28343 9.18734 1.57568 9.69258 1.57568 10.2399C1.57568 10.7872 1.28343 11.2924 0.809898 11.566L0.80783 11.5674C0.437001 11.7818 0.166115 12.1347 0.0551422 12.5482C-0.055831 12.9625 0.00206804 13.4036 0.216433 13.7745C0.725117 14.6561 1.53846 16.0636 2.04715 16.9451C2.26151 17.3167 2.61442 17.5875 3.02798 17.6978C3.44224 17.8088 3.88337 17.7509 4.2542 17.5365L4.25627 17.5358C4.7298 17.2622 5.31431 17.2622 5.78784 17.5358C6.26137 17.8088 6.55363 18.3147 6.55363 18.862V18.8641C6.55363 19.2928 6.72388 19.7036 7.02716 20.0069C7.32975 20.3095 7.74056 20.4797 8.16929 20.4797C9.18734 20.4797 10.8127 20.4797 11.8307 20.4797C12.2594 20.4797 12.6702 20.3095 12.9728 20.0069C13.2761 19.7036 13.4464 19.2928 13.4464 18.8641V18.862C13.4464 18.3147 13.7386 17.8088 14.2122 17.5358C14.6857 17.2622 15.2702 17.2622 15.7437 17.5358L15.7458 17.5365C16.1166 17.7509 16.5578 17.8088 16.972 17.6978C17.3856 17.5875 17.7385 17.3167 17.9529 16.9451C18.4615 16.0636 19.2749 14.6561 19.7836 13.7745C19.9979 13.4036 20.0558 12.9625 19.9449 12.5482C19.8339 12.1347 19.563 11.7818 19.1922 11.5674L19.1901 11.566C18.7166 11.2924 18.4243 10.7872 18.4243 10.2399C18.4243 9.69258 18.7166 9.18734 19.1901 8.9137L19.1922 8.91232C19.563 8.69796 19.8339 8.34505 19.9449 7.93149C20.0558 7.51723 19.9979 7.0761 19.7836 6.70527C19.2749 5.82368 18.4615 4.41618 17.9529 3.5346C17.7385 3.16308 17.3856 2.8922 16.972 2.78191C16.5578 2.67094 16.1166 2.72884 15.7458 2.9432ZM10 5.41494C7.33733 5.41494 5.17508 7.5772 5.17508 10.2399C5.17508 12.9025 7.33733 15.0648 10 15.0648C12.6627 15.0648 14.8249 12.9025 14.8249 10.2399C14.8249 7.5772 12.6627 5.41494 10 5.41494Z" fill="#ADB3BC"/>
</svg>
