<svg width="191" height="191" viewBox="0 0 191 191" fill="none" xmlns="http://www.w3.org/2000/svg">
<path d="M95.5098 132.294C95.1721 132.294 94.8376 132.36 94.5256 132.49C94.2136 132.619 93.9301 132.809 93.6915 133.048C93.4529 133.287 93.2638 133.571 93.1349 133.883C93.0061 134.195 92.9402 134.53 92.9408 134.868V173.884C92.9408 174.565 93.2115 175.218 93.6933 175.7C94.175 176.182 94.8285 176.453 95.5098 176.453C96.1912 176.453 96.8446 176.182 97.3264 175.7C97.8082 175.218 98.0789 174.565 98.0789 173.884V134.868C98.0795 134.53 98.0136 134.195 97.8847 133.883C97.7559 133.571 97.5668 133.287 97.3282 133.048C97.0895 132.809 96.8061 132.619 96.4941 132.49C96.1821 132.36 95.8476 132.294 95.5098 132.294Z" fill="#001F25"/>
<path d="M139.958 58.7915H137.365C140.746 55.5716 142.765 51.1782 143.005 46.5153C143.246 41.8524 141.691 37.2744 138.66 33.7231C135.629 30.1718 131.352 27.9171 126.709 27.423C122.066 26.9288 117.41 28.2327 113.699 31.0665C113.405 26.4429 111.361 22.105 107.982 18.9348C104.604 15.7645 100.145 14 95.5123 14C90.8794 14 86.4204 15.7645 83.0421 18.9348C79.6637 22.105 77.6196 26.4429 77.3255 31.0665C74.1726 28.6341 70.3058 27.309 66.3237 27.2962C62.6702 27.2882 59.0981 28.3754 56.0684 30.4173C53.0387 32.4593 50.6906 35.3624 49.327 38.7519C47.9633 42.1415 47.6468 45.8619 48.4183 49.4331C49.1898 53.0042 51.0138 56.2622 53.655 58.7866H51.0614C46.8037 58.7905 42.7214 60.4833 39.7103 63.4935C36.6992 66.5037 35.0052 70.5855 35 74.8432V102.652C35.0042 106.64 36.4317 110.496 39.0255 113.526C41.6194 116.555 45.2093 118.56 49.1494 119.179V155.822C49.1783 156.485 49.4619 157.11 49.9409 157.569C50.42 158.028 51.0576 158.284 51.7208 158.284C52.3841 158.284 53.0217 158.028 53.5007 157.569C53.9798 157.11 54.2634 156.485 54.2923 155.822V116.865C54.2923 116.865 54.2923 116.83 54.2923 116.811V74.7941C54.2923 74.1128 54.0217 73.4593 53.5399 72.9775C53.0581 72.4958 52.4047 72.2251 51.7233 72.2251C51.0419 72.2251 50.3885 72.4958 49.9067 72.9775C49.4249 73.4593 49.1543 74.1128 49.1543 74.7941V113.933C46.5951 113.353 44.3086 111.922 42.6689 109.873C41.0291 107.825 40.1334 105.28 40.1283 102.656V74.8481C40.1322 71.9527 41.2844 69.177 43.3323 67.1301C45.3801 65.0832 48.1562 63.9322 51.0516 63.9296H66.3139C70.4146 63.9153 74.3895 62.512 77.5902 59.9486C76.9593 62.9797 77.1112 66.1215 78.0317 69.0776C78.9521 72.0337 80.6107 74.7064 82.8509 76.8435H80.2622C76.0041 76.8487 71.9218 78.5425 68.9108 81.5535C65.8998 84.5645 64.206 88.6467 64.2008 92.9049V116.762C64.2008 116.762 64.2008 116.796 64.2008 116.811V155.827C64.2297 156.489 64.5133 157.115 64.9924 157.574C65.4715 158.033 66.1091 158.289 66.7723 158.289C67.4355 158.289 68.0731 158.033 68.5522 157.574C69.0313 157.115 69.3149 156.489 69.3438 155.827V132.666C71.8025 135.09 74.9558 136.688 78.3649 137.236V173.884C78.3938 174.546 78.6774 175.172 79.1565 175.631C79.6355 176.089 80.2732 176.345 80.9364 176.345C81.5996 176.345 82.2372 176.089 82.7163 175.631C83.1953 175.172 83.4789 174.546 83.5079 173.884V134.868C83.5079 134.868 83.5079 134.833 83.5079 134.814V92.851C83.4789 92.1884 83.1953 91.5626 82.7163 91.104C82.2372 90.6453 81.5996 90.3893 80.9364 90.3893C80.2732 90.3893 79.6355 90.6453 79.1565 91.104C78.6774 91.5626 78.3938 92.1884 78.3649 92.851V132.004C75.8103 131.42 73.5293 129.987 71.8944 127.939C70.2595 125.89 69.3673 123.349 69.3634 120.728V92.9049C69.3686 90.0159 70.5175 87.2465 72.559 85.2023C74.6005 83.158 77.3683 82.0053 80.2573 81.9963H110.772C113.667 81.9989 116.443 83.15 118.49 85.1971C120.537 87.2441 121.688 90.0198 121.691 92.9147V120.728C121.687 123.352 120.792 125.896 119.153 127.945C117.514 129.993 115.228 131.425 112.669 132.004V92.851C112.641 92.1884 112.357 91.5626 111.878 91.104C111.399 90.6453 110.761 90.3893 110.098 90.3893C109.435 90.3893 108.797 90.6453 108.318 91.104C107.839 91.5626 107.555 92.1884 107.526 92.851V134.868C107.527 134.876 107.527 134.884 107.526 134.892V173.884C107.555 174.546 107.839 175.172 108.318 175.631C108.797 176.089 109.435 176.345 110.098 176.345C110.761 176.345 111.399 176.089 111.878 175.631C112.357 175.172 112.641 174.546 112.669 173.884V137.236C116.074 136.689 119.224 135.095 121.681 132.676V155.827C121.71 156.489 121.993 157.115 122.472 157.574C122.951 158.033 123.589 158.289 124.252 158.289C124.915 158.289 125.553 158.033 126.032 157.574C126.511 157.115 126.795 156.489 126.824 155.827V92.9049C126.819 88.6467 125.125 84.5645 122.114 81.5535C119.103 78.5425 115.02 76.8487 110.762 76.8435H108.174C109.957 75.1434 111.376 73.0995 112.347 70.8352C113.318 68.571 113.82 66.1334 113.822 63.6698C113.819 62.4229 113.691 61.1795 113.439 59.9584C116.632 62.5144 120.596 63.9142 124.686 63.9296H139.948C142.844 63.9322 145.62 65.0832 147.668 67.1301C149.716 69.177 150.868 71.9527 150.872 74.8481V102.656C150.867 105.28 149.971 107.825 148.331 109.873C146.691 111.922 144.405 113.353 141.846 113.933V74.7941C141.846 74.1128 141.575 73.4593 141.093 72.9775C140.612 72.4958 139.958 72.2251 139.277 72.2251C138.595 72.2251 137.942 72.4958 137.46 72.9775C136.978 73.4593 136.708 74.1128 136.708 74.7941V116.806C136.708 116.806 136.708 116.84 136.708 116.86V155.822C136.737 156.485 137.02 157.11 137.499 157.569C137.978 158.028 138.616 158.284 139.279 158.284C139.942 158.284 140.58 158.028 141.059 157.569C141.538 157.11 141.822 156.485 141.851 155.822V119.184C145.791 118.565 149.381 116.56 151.974 113.531C154.568 110.501 155.996 106.645 156 102.656V74.8481C155.995 70.5937 154.304 66.5149 151.297 63.5053C148.29 60.4957 144.212 58.8006 139.958 58.7915ZM95.5098 19.1577C98.9522 19.1292 102.268 20.4524 104.746 22.8427C107.223 25.2331 108.663 28.4999 108.758 31.9411C108.852 35.3823 107.593 38.7231 105.25 41.2457C102.908 43.7683 99.6692 45.2712 96.2305 45.4315C95.9854 45.4315 95.7402 45.358 95.5098 45.358C95.2794 45.358 95.0195 45.4217 94.7891 45.4315C91.3504 45.2712 88.1118 43.7683 85.7693 41.2457C83.4268 38.7231 82.1675 35.3823 82.2618 31.9411C82.3562 28.4999 83.7969 25.2331 86.2741 22.8427C88.7513 20.4524 92.0675 19.1292 95.5098 19.1577ZM66.3188 58.7915C63.7131 58.7925 61.1656 58.0207 58.9985 56.5738C56.8315 55.1268 55.1422 53.0697 54.1444 50.6626C53.1466 48.2555 52.885 45.6066 53.3927 43.0508C53.9005 40.495 55.1548 38.1472 56.9969 36.3044C58.8391 34.4615 61.1864 33.2063 63.742 32.6976C66.2976 32.1889 68.9467 32.4495 71.3541 33.4465C73.7616 34.4434 75.8193 36.1319 77.2671 38.2984C78.7149 40.4649 79.4876 43.0121 79.4876 45.6178C79.4837 49.1088 78.0959 52.4559 75.6283 54.9253C73.1607 57.3947 69.8147 58.7851 66.3237 58.7915H66.3188ZM95.5098 76.8435C92.0675 76.8719 88.7513 75.5488 86.2741 73.1584C83.7969 70.768 82.3562 67.5012 82.2618 64.0601C82.1675 60.6189 83.4268 57.278 85.7693 54.7554C88.1118 52.2329 91.3504 50.7299 94.7891 50.5696C95.0342 50.5696 95.2794 50.6432 95.5098 50.6432C95.7402 50.6432 96.0001 50.5794 96.2305 50.5696C99.6692 50.7299 102.908 52.2329 105.25 54.7554C107.593 57.278 108.852 60.6189 108.758 64.0601C108.663 67.5012 107.223 70.768 104.746 73.1584C102.268 75.5488 98.9522 76.8719 95.5098 76.8435ZM111.522 45.6178C111.522 43.0121 112.295 40.4649 113.743 38.2984C115.19 36.1319 117.248 34.4434 119.656 33.4465C122.063 32.4495 124.712 32.1889 127.268 32.6976C129.823 33.2063 132.171 34.4615 134.013 36.3044C135.855 38.1472 137.109 40.495 137.617 43.0508C138.125 45.6066 137.863 48.2555 136.865 50.6626C135.868 53.0697 134.178 55.1268 132.011 56.5738C129.844 58.0207 127.297 58.7925 124.691 58.7915C121.2 58.7863 117.853 57.3964 115.385 54.9267C112.917 52.457 111.53 49.1092 111.527 45.6178H111.522Z" fill="#001F25"/>
</svg>
