<svg width="191" height="191" viewBox="0 0 191 191" fill="none" xmlns="http://www.w3.org/2000/svg">
<path d="M146.549 28.9626H118.101V17.5234C118.101 16.1776 116.849 15 115.417 15H73.0139C71.5825 15 70.3301 16.1776 70.3301 17.5234V28.9626H40.2718C34.0097 28.9626 29 33.6729 29 39.5607V166.402C29 172.29 34.0097 177 40.2718 177H146.728C152.99 177 158 172.29 158 166.402V39.5607C157.821 33.6729 152.811 28.9626 146.549 28.9626ZM73.0139 61.5981H115.417C116.849 61.5981 118.101 60.4206 118.101 59.0748V48.1402H136.888V156.981H49.9334V48.3084H70.3301V59.0748C70.3301 60.5888 71.5825 61.5981 73.0139 61.5981ZM112.734 20.0467V45.6168V56.5514H75.6976V45.6168V31.3178V20.0467H112.734ZM152.454 166.234C152.454 169.262 149.77 171.785 146.549 171.785H40.2718C37.0513 171.785 34.3675 169.262 34.3675 166.234V39.5607C34.3675 36.5327 37.0513 34.0093 40.2718 34.0093H70.3301V43.2617H47.2497C45.8183 43.2617 44.5659 44.4393 44.5659 45.7851V159.673C44.5659 161.019 45.8183 162.196 47.2497 162.196H139.571C141.003 162.196 142.255 161.019 142.255 159.673V45.7851C142.255 44.4393 141.003 43.2617 139.571 43.2617H118.101V34.0093H146.549C149.77 34.0093 152.454 36.5327 152.454 39.5607V166.234Z" fill="black"/>
<path d="M56.5533 90.0278C56.5533 91.3736 57.8058 92.5511 59.2371 92.5511H128.121C129.552 92.5511 130.804 91.3736 130.804 90.0278C130.804 88.682 129.552 87.5044 128.121 87.5044H59.2371C57.8058 87.5044 56.5533 88.682 56.5533 90.0278Z" fill="black"/>
<path d="M128.121 105.168H59.2371C57.8058 105.168 56.5533 106.346 56.5533 107.692C56.5533 109.037 57.8058 110.215 59.2371 110.215H128.121C129.552 110.215 130.804 109.037 130.804 107.692C130.804 106.346 129.552 105.168 128.121 105.168Z" fill="black"/>
<path d="M128.121 123.673H59.2371C57.8058 123.673 56.5533 124.85 56.5533 126.196C56.5533 127.542 57.8058 128.719 59.2371 128.719H128.121C129.552 128.719 130.804 127.542 130.804 126.196C130.804 124.85 129.552 123.673 128.121 123.673Z" fill="black"/>
</svg>
